<svg width="500" height="300" viewBox="0 0 500 300" fill="none" xmlns="http://www.w3.org/2000/svg">
  <rect width="500" height="300" fill="#F3F4F6"/>
  <path d="M250 150C264.359 150 276 138.359 276 124C276 109.641 264.359 98 250 98C235.641 98 224 109.641 224 124C224 138.359 235.641 150 250 150Z" fill="#9CA3AF"/>
  <path d="M250 162C217.5 162 192 181.5 192 206V213H308V206C308 181.5 282.5 162 250 162Z" fill="#9CA3AF"/>
  <path d="M227 78H273L300 105V222H200V105L227 78Z" stroke="#6B7280" stroke-width="2" stroke-linecap="round" stroke-linejoin="round"/>
  <path d="M189 235H312" stroke="#6B7280" stroke-width="2" stroke-linecap="round"/>
  <text x="250" y="260" font-family="sans-serif" font-size="14" text-anchor="middle" fill="#6B7280">Image unavailable</text>
</svg>